<mxfile host="app.diagrams.net" modified="2022-07-10T05:35:21.922Z" agent="5.0 (Macintosh; Intel Mac OS X 10_15_7) AppleWebKit/605.1.15 (KHTML, like Gecko) Version/15.3 Safari/605.1.15" etag="dYd-14JIKLnCp8B7hQao" version="20.0.2" type="github">
  <diagram id="C5RBs43oDa-KdzZeNtuy" name="Page-1">
    <mxGraphModel dx="1018" dy="690" grid="1" gridSize="10" guides="1" tooltips="1" connect="1" arrows="1" fold="1" page="1" pageScale="1" pageWidth="827" pageHeight="1169" math="0" shadow="0">
      <root>
        <mxCell id="WIyWlLk6GJQsqaUBKTNV-0" />
        <mxCell id="WIyWlLk6GJQsqaUBKTNV-1" parent="WIyWlLk6GJQsqaUBKTNV-0" />
        <mxCell id="NtHrVZzT_Xfj0ru2U78E-4" style="edgeStyle=orthogonalEdgeStyle;rounded=0;orthogonalLoop=1;jettySize=auto;html=1;entryX=0.5;entryY=0;entryDx=0;entryDy=0;" edge="1" parent="WIyWlLk6GJQsqaUBKTNV-1" source="NtHrVZzT_Xfj0ru2U78E-1" target="NtHrVZzT_Xfj0ru2U78E-3">
          <mxGeometry relative="1" as="geometry" />
        </mxCell>
        <mxCell id="NtHrVZzT_Xfj0ru2U78E-1" value="Step 1&amp;nbsp;" style="rounded=0;whiteSpace=wrap;html=1;" vertex="1" parent="WIyWlLk6GJQsqaUBKTNV-1">
          <mxGeometry x="220" y="90" width="120" height="60" as="geometry" />
        </mxCell>
        <mxCell id="NtHrVZzT_Xfj0ru2U78E-6" style="edgeStyle=orthogonalEdgeStyle;rounded=0;orthogonalLoop=1;jettySize=auto;html=1;entryX=0.608;entryY=-0.017;entryDx=0;entryDy=0;entryPerimeter=0;" edge="1" parent="WIyWlLk6GJQsqaUBKTNV-1" source="NtHrVZzT_Xfj0ru2U78E-3" target="NtHrVZzT_Xfj0ru2U78E-5">
          <mxGeometry relative="1" as="geometry" />
        </mxCell>
        <mxCell id="NtHrVZzT_Xfj0ru2U78E-18" value="Pass" style="edgeLabel;html=1;align=center;verticalAlign=middle;resizable=0;points=[];" vertex="1" connectable="0" parent="NtHrVZzT_Xfj0ru2U78E-6">
          <mxGeometry x="-0.1666" y="3" relative="1" as="geometry">
            <mxPoint as="offset" />
          </mxGeometry>
        </mxCell>
        <mxCell id="NtHrVZzT_Xfj0ru2U78E-20" style="edgeStyle=orthogonalEdgeStyle;rounded=0;orthogonalLoop=1;jettySize=auto;html=1;entryX=0.5;entryY=0;entryDx=0;entryDy=0;" edge="1" parent="WIyWlLk6GJQsqaUBKTNV-1" source="NtHrVZzT_Xfj0ru2U78E-3" target="NtHrVZzT_Xfj0ru2U78E-19">
          <mxGeometry relative="1" as="geometry" />
        </mxCell>
        <mxCell id="NtHrVZzT_Xfj0ru2U78E-21" value="Fail" style="edgeLabel;html=1;align=center;verticalAlign=middle;resizable=0;points=[];" vertex="1" connectable="0" parent="NtHrVZzT_Xfj0ru2U78E-20">
          <mxGeometry x="-0.1333" y="3" relative="1" as="geometry">
            <mxPoint as="offset" />
          </mxGeometry>
        </mxCell>
        <mxCell id="NtHrVZzT_Xfj0ru2U78E-3" value="pass/fail" style="rhombus;whiteSpace=wrap;html=1;" vertex="1" parent="WIyWlLk6GJQsqaUBKTNV-1">
          <mxGeometry x="240" y="230" width="80" height="80" as="geometry" />
        </mxCell>
        <mxCell id="NtHrVZzT_Xfj0ru2U78E-10" style="edgeStyle=orthogonalEdgeStyle;rounded=0;orthogonalLoop=1;jettySize=auto;html=1;" edge="1" parent="WIyWlLk6GJQsqaUBKTNV-1" source="NtHrVZzT_Xfj0ru2U78E-5" target="NtHrVZzT_Xfj0ru2U78E-7">
          <mxGeometry relative="1" as="geometry" />
        </mxCell>
        <mxCell id="NtHrVZzT_Xfj0ru2U78E-5" value="step 2" style="rounded=0;whiteSpace=wrap;html=1;" vertex="1" parent="WIyWlLk6GJQsqaUBKTNV-1">
          <mxGeometry x="354" y="320" width="120" height="60" as="geometry" />
        </mxCell>
        <mxCell id="NtHrVZzT_Xfj0ru2U78E-13" style="edgeStyle=orthogonalEdgeStyle;rounded=0;orthogonalLoop=1;jettySize=auto;html=1;" edge="1" parent="WIyWlLk6GJQsqaUBKTNV-1" source="NtHrVZzT_Xfj0ru2U78E-7" target="NtHrVZzT_Xfj0ru2U78E-12">
          <mxGeometry relative="1" as="geometry" />
        </mxCell>
        <mxCell id="NtHrVZzT_Xfj0ru2U78E-24" value="220" style="edgeLabel;html=1;align=center;verticalAlign=middle;resizable=0;points=[];" vertex="1" connectable="0" parent="NtHrVZzT_Xfj0ru2U78E-13">
          <mxGeometry x="-0.5906" y="3" relative="1" as="geometry">
            <mxPoint as="offset" />
          </mxGeometry>
        </mxCell>
        <mxCell id="NtHrVZzT_Xfj0ru2U78E-26" style="edgeStyle=orthogonalEdgeStyle;rounded=0;orthogonalLoop=1;jettySize=auto;html=1;entryX=1;entryY=0.5;entryDx=0;entryDy=0;" edge="1" parent="WIyWlLk6GJQsqaUBKTNV-1" source="NtHrVZzT_Xfj0ru2U78E-7" target="NtHrVZzT_Xfj0ru2U78E-25">
          <mxGeometry relative="1" as="geometry" />
        </mxCell>
        <mxCell id="NtHrVZzT_Xfj0ru2U78E-7" value="points: min 220" style="rhombus;whiteSpace=wrap;html=1;" vertex="1" parent="WIyWlLk6GJQsqaUBKTNV-1">
          <mxGeometry x="374" y="430" width="80" height="80" as="geometry" />
        </mxCell>
        <mxCell id="NtHrVZzT_Xfj0ru2U78E-15" style="edgeStyle=orthogonalEdgeStyle;rounded=0;orthogonalLoop=1;jettySize=auto;html=1;entryX=0.5;entryY=0;entryDx=0;entryDy=0;" edge="1" parent="WIyWlLk6GJQsqaUBKTNV-1" source="NtHrVZzT_Xfj0ru2U78E-12" target="NtHrVZzT_Xfj0ru2U78E-14">
          <mxGeometry relative="1" as="geometry" />
        </mxCell>
        <mxCell id="NtHrVZzT_Xfj0ru2U78E-12" value="OTE exam (English)" style="rounded=0;whiteSpace=wrap;html=1;" vertex="1" parent="WIyWlLk6GJQsqaUBKTNV-1">
          <mxGeometry x="510" y="525" width="120" height="60" as="geometry" />
        </mxCell>
        <mxCell id="NtHrVZzT_Xfj0ru2U78E-17" style="edgeStyle=orthogonalEdgeStyle;rounded=0;orthogonalLoop=1;jettySize=auto;html=1;entryX=0.5;entryY=0;entryDx=0;entryDy=0;" edge="1" parent="WIyWlLk6GJQsqaUBKTNV-1" source="NtHrVZzT_Xfj0ru2U78E-14" target="NtHrVZzT_Xfj0ru2U78E-16">
          <mxGeometry relative="1" as="geometry" />
        </mxCell>
        <mxCell id="NtHrVZzT_Xfj0ru2U78E-14" value="" style="rhombus;whiteSpace=wrap;html=1;" vertex="1" parent="WIyWlLk6GJQsqaUBKTNV-1">
          <mxGeometry x="660" y="585" width="80" height="80" as="geometry" />
        </mxCell>
        <mxCell id="NtHrVZzT_Xfj0ru2U78E-16" value="Apply for resisdency&amp;nbsp;" style="rounded=0;whiteSpace=wrap;html=1;" vertex="1" parent="WIyWlLk6GJQsqaUBKTNV-1">
          <mxGeometry x="770" y="650" width="120" height="60" as="geometry" />
        </mxCell>
        <mxCell id="NtHrVZzT_Xfj0ru2U78E-22" style="edgeStyle=orthogonalEdgeStyle;rounded=0;orthogonalLoop=1;jettySize=auto;html=1;entryX=0;entryY=0.5;entryDx=0;entryDy=0;" edge="1" parent="WIyWlLk6GJQsqaUBKTNV-1" source="NtHrVZzT_Xfj0ru2U78E-19" target="NtHrVZzT_Xfj0ru2U78E-1">
          <mxGeometry relative="1" as="geometry">
            <Array as="points">
              <mxPoint x="40" y="350" />
              <mxPoint x="40" y="120" />
            </Array>
          </mxGeometry>
        </mxCell>
        <mxCell id="NtHrVZzT_Xfj0ru2U78E-23" value="this loop can not happen" style="edgeLabel;html=1;align=center;verticalAlign=middle;resizable=0;points=[];" vertex="1" connectable="0" parent="NtHrVZzT_Xfj0ru2U78E-22">
          <mxGeometry x="0.4889" y="1" relative="1" as="geometry">
            <mxPoint as="offset" />
          </mxGeometry>
        </mxCell>
        <mxCell id="NtHrVZzT_Xfj0ru2U78E-19" value="Game over" style="rounded=0;whiteSpace=wrap;html=1;" vertex="1" parent="WIyWlLk6GJQsqaUBKTNV-1">
          <mxGeometry x="80" y="320" width="120" height="60" as="geometry" />
        </mxCell>
        <mxCell id="NtHrVZzT_Xfj0ru2U78E-25" value="Game over" style="rounded=0;whiteSpace=wrap;html=1;" vertex="1" parent="WIyWlLk6GJQsqaUBKTNV-1">
          <mxGeometry x="200" y="440" width="120" height="60" as="geometry" />
        </mxCell>
      </root>
    </mxGraphModel>
  </diagram>
</mxfile>
